# Blender v2.93.0 OBJ File: ''
# www.blender.org
o Sphere
v 0.000000 0.600785 -0.195090
v 0.000000 0.543880 -0.382683
v 0.000000 0.451470 -0.555570
v 0.000000 0.327107 -0.707107
v 0.000000 0.175570 -0.831470
v 0.000000 0.002683 -0.923880
v 0.038060 0.600785 -0.191342
v 0.074658 0.543880 -0.375330
v 0.108386 0.451470 -0.544895
v 0.137950 0.327107 -0.693520
v 0.162212 0.175570 -0.815493
v 0.180240 0.002683 -0.906127
v 0.074658 0.600785 -0.180240
v 0.146447 0.543880 -0.353553
v 0.212608 0.451470 -0.513280
v 0.270598 0.327107 -0.653281
v 0.318190 0.175570 -0.768178
v 0.353553 0.002683 -0.853553
v 0.108386 0.600785 -0.162212
v 0.212608 0.543880 -0.318190
v 0.308658 0.451470 -0.461940
v 0.392848 0.327107 -0.587938
v 0.461940 0.175570 -0.691342
v 0.513280 0.002683 -0.768178
v 0.137950 0.600785 -0.137950
v 0.270598 0.543880 -0.270598
v 0.392848 0.451470 -0.392847
v 0.500000 0.327107 -0.500000
v 0.587938 0.175570 -0.587938
v 0.653281 0.002683 -0.653281
v 0.162212 0.600785 -0.108386
v 0.318190 0.543880 -0.212607
v 0.461940 0.451470 -0.308658
v 0.587938 0.327107 -0.392847
v 0.691342 0.175570 -0.461940
v 0.768178 0.002683 -0.513280
v 0.180240 0.600785 -0.074658
v 0.353554 0.543880 -0.146447
v 0.513280 0.451470 -0.212607
v 0.653281 0.327107 -0.270598
v 0.768178 0.175570 -0.318190
v 0.853553 0.002683 -0.353553
v 0.191342 0.600785 -0.038060
v 0.375330 0.543880 -0.074658
v 0.544895 0.451470 -0.108386
v 0.693520 0.327107 -0.137950
v 0.815493 0.175570 -0.162212
v 0.906127 0.002683 -0.180240
v 0.195090 0.600785 0.000000
v 0.382684 0.543880 0.000000
v 0.555570 0.451470 0.000000
v 0.707107 0.327107 0.000000
v 0.831469 0.175570 0.000000
v 0.923879 0.002683 0.000000
v 0.191342 0.600785 0.038060
v 0.375330 0.543880 0.074658
v 0.544895 0.451470 0.108386
v 0.693520 0.327107 0.137950
v 0.815493 0.175570 0.162212
v 0.906127 0.002683 0.180240
v 0.180240 0.600785 0.074658
v 0.353553 0.543880 0.146447
v 0.513280 0.451470 0.212608
v 0.653281 0.327107 0.270598
v 0.768178 0.175570 0.318190
v 0.853553 0.002683 0.353553
v 0.162212 0.600785 0.108386
v 0.318190 0.543880 0.212608
v 0.461940 0.451470 0.308658
v 0.587938 0.327107 0.392847
v 0.691341 0.175570 0.461940
v 0.768178 0.002683 0.513280
v 0.137950 0.600785 0.137950
v 0.270598 0.543880 0.270598
v 0.392847 0.451470 0.392847
v 0.500000 0.327107 0.500000
v 0.587938 0.175570 0.587938
v 0.653281 0.002683 0.653281
v 0.108386 0.600785 0.162212
v 0.212608 0.543880 0.318190
v 0.308658 0.451470 0.461940
v 0.392847 0.327107 0.587938
v 0.461940 0.175570 0.691342
v 0.513280 0.002683 0.768178
v 0.074658 0.600785 0.180240
v 0.146447 0.543880 0.353554
v 0.212607 0.451470 0.513280
v 0.270598 0.327107 0.653281
v 0.318190 0.175570 0.768178
v 0.353553 0.002683 0.853553
v 0.038060 0.600785 0.191342
v 0.074658 0.543880 0.375330
v 0.108386 0.451470 0.544895
v 0.137950 0.327107 0.693520
v 0.162212 0.175570 0.815493
v 0.180240 0.002683 0.906127
v 0.000000 0.600785 0.195090
v -0.000000 0.543880 0.382684
v -0.000000 0.451470 0.555570
v 0.000000 0.327107 0.707107
v -0.000000 0.175570 0.831469
v 0.000000 0.002683 0.923879
v -0.038060 0.600785 0.191342
v -0.074658 0.543880 0.375330
v -0.108386 0.451470 0.544895
v -0.137950 0.327107 0.693520
v -0.162212 0.175570 0.815493
v -0.180240 0.002683 0.906127
v -0.074658 0.600785 0.180240
v -0.146447 0.543880 0.353553
v -0.212608 0.451470 0.513280
v -0.270598 0.327107 0.653281
v -0.318189 0.175570 0.768177
v -0.353553 0.002683 0.853553
v -0.108386 0.600785 0.162212
v -0.212608 0.543880 0.318190
v -0.308658 0.451470 0.461940
v -0.392847 0.327107 0.587938
v -0.461940 0.175570 0.691341
v -0.513280 0.002683 0.768178
v -0.137950 0.600785 0.137950
v -0.270598 0.543880 0.270598
v -0.392847 0.451470 0.392847
v -0.500000 0.327107 0.500000
v -0.587937 0.175570 0.587938
v -0.653281 0.002683 0.653281
v -0.162212 0.600785 0.108386
v -0.318190 0.543880 0.212608
v -0.461940 0.451470 0.308658
v -0.587938 0.327107 0.392847
v -0.691341 0.175570 0.461940
v -0.768178 0.002683 0.513280
v -0.000000 0.620000 0.000000
v -0.180240 0.600785 0.074658
v -0.353553 0.543880 0.146447
v -0.513280 0.451470 0.212607
v -0.653281 0.327107 0.270598
v -0.768177 0.175570 0.318190
v -0.853553 0.002683 0.353553
v -0.191342 0.600785 0.038060
v -0.375330 0.543880 0.074658
v -0.544895 0.451470 0.108386
v -0.693520 0.327107 0.137950
v -0.815493 0.175570 0.162212
v -0.906127 0.002683 0.180240
v -0.195090 0.600785 0.000000
v -0.382683 0.543880 0.000000
v -0.555570 0.451470 -0.000000
v -0.707107 0.327107 0.000000
v -0.831469 0.175570 0.000000
v -0.923879 0.002683 0.000000
v -0.191342 0.600785 -0.038060
v -0.375330 0.543880 -0.074658
v -0.544895 0.451470 -0.108386
v -0.693520 0.327107 -0.137950
v -0.815493 0.175570 -0.162212
v -0.906127 0.002683 -0.180240
v -0.180240 0.600785 -0.074658
v -0.353553 0.543880 -0.146447
v -0.513280 0.451470 -0.212607
v -0.653281 0.327107 -0.270598
v -0.768177 0.175570 -0.318189
v -0.853553 0.002683 -0.353553
v -0.162212 0.600785 -0.108386
v -0.318189 0.543880 -0.212607
v -0.461939 0.451470 -0.308658
v -0.587938 0.327107 -0.392847
v -0.691341 0.175570 -0.461939
v -0.768177 0.002683 -0.513280
v -0.137950 0.600785 -0.137950
v -0.270598 0.543880 -0.270598
v -0.392847 0.451470 -0.392847
v -0.500000 0.327107 -0.500000
v -0.587937 0.175570 -0.587937
v -0.653281 0.002683 -0.653281
v -0.108386 0.600785 -0.162212
v -0.212607 0.543880 -0.318189
v -0.308658 0.451470 -0.461939
v -0.392847 0.327107 -0.587937
v -0.461939 0.175570 -0.691341
v -0.513280 0.002683 -0.768177
v -0.074658 0.600785 -0.180240
v -0.146446 0.543880 -0.353553
v -0.212607 0.451470 -0.513279
v -0.270598 0.327107 -0.653281
v -0.318189 0.175570 -0.768177
v -0.353553 0.002683 -0.853553
v -0.038060 0.600785 -0.191342
v -0.074658 0.543880 -0.375330
v -0.108386 0.451470 -0.544895
v -0.137950 0.327107 -0.693520
v -0.162212 0.175570 -0.815493
v -0.180240 0.002683 -0.906127
vt 0.750000 0.937500
vt 0.734375 1.000000
vt 0.718750 0.937500
vt 0.750000 0.875000
vt 0.718750 0.875000
vt 0.750000 0.812500
vt 0.718750 0.812500
vt 0.750000 0.750000
vt 0.718750 0.750000
vt 0.750000 0.687500
vt 0.718750 0.687500
vt 0.750000 0.625000
vt 0.718750 0.625000
vt 0.703125 1.000000
vt 0.687500 0.937500
vt 0.687500 0.875000
vt 0.687500 0.812500
vt 0.687500 0.750000
vt 0.687500 0.687500
vt 0.687500 0.625000
vt 0.656250 0.875000
vt 0.656250 0.812500
vt 0.656250 0.750000
vt 0.656250 0.687500
vt 0.656250 0.625000
vt 0.671875 1.000000
vt 0.656250 0.937500
vt 0.640625 1.000000
vt 0.625000 0.937500
vt 0.625000 0.875000
vt 0.625000 0.812500
vt 0.625000 0.750000
vt 0.625000 0.687500
vt 0.625000 0.625000
vt 0.593750 0.812500
vt 0.593750 0.750000
vt 0.593750 0.687500
vt 0.593750 0.625000
vt 0.609375 1.000000
vt 0.593750 0.937500
vt 0.593750 0.875000
vt 0.578125 1.000000
vt 0.562500 0.937500
vt 0.562500 0.875000
vt 0.562500 0.812500
vt 0.562500 0.750000
vt 0.562500 0.687500
vt 0.562500 0.625000
vt 0.531250 0.812500
vt 0.531250 0.750000
vt 0.531250 0.687500
vt 0.531250 0.625000
vt 0.546875 1.000000
vt 0.531250 0.937500
vt 0.531250 0.875000
vt 0.515625 1.000000
vt 0.500000 0.937500
vt 0.500000 0.875000
vt 0.500000 0.812500
vt 0.500000 0.750000
vt 0.500000 0.687500
vt 0.500000 0.625000
vt 0.468750 0.750000
vt 0.468750 0.687500
vt 0.468750 0.625000
vt 0.484375 1.000000
vt 0.468750 0.937500
vt 0.468750 0.875000
vt 0.468750 0.812500
vt 0.437500 0.937500
vt 0.437500 0.875000
vt 0.437500 0.812500
vt 0.437500 0.750000
vt 0.437500 0.687500
vt 0.437500 0.625000
vt 0.453125 1.000000
vt 0.406250 0.687500
vt 0.406250 0.625000
vt 0.421875 1.000000
vt 0.406250 0.937500
vt 0.406250 0.875000
vt 0.406250 0.812500
vt 0.406250 0.750000
vt 0.375000 0.937500
vt 0.375000 0.875000
vt 0.375000 0.812500
vt 0.375000 0.750000
vt 0.375000 0.687500
vt 0.375000 0.625000
vt 0.390625 1.000000
vt 0.343750 0.687500
vt 0.343750 0.625000
vt 0.359375 1.000000
vt 0.343750 0.937500
vt 0.343750 0.875000
vt 0.343750 0.812500
vt 0.343750 0.750000
vt 0.312500 0.875000
vt 0.312500 0.812500
vt 0.312500 0.750000
vt 0.312500 0.687500
vt 0.312500 0.625000
vt 0.328125 1.000000
vt 0.312500 0.937500
vt 0.296875 1.000000
vt 0.281250 0.937500
vt 0.281250 0.875000
vt 0.281250 0.812500
vt 0.281250 0.750000
vt 0.281250 0.687500
vt 0.281250 0.625000
vt 0.250000 0.875000
vt 0.250000 0.812500
vt 0.250000 0.750000
vt 0.250000 0.687500
vt 0.250000 0.625000
vt 0.265625 1.000000
vt 0.250000 0.937500
vt 0.234375 1.000000
vt 0.218750 0.937500
vt 0.218750 0.875000
vt 0.218750 0.812500
vt 0.218750 0.750000
vt 0.218750 0.687500
vt 0.218750 0.625000
vt 0.187500 0.812500
vt 0.187500 0.750000
vt 0.187500 0.687500
vt 0.187500 0.625000
vt 0.203125 1.000000
vt 0.187500 0.937500
vt 0.187500 0.875000
vt 0.171875 1.000000
vt 0.156250 0.937500
vt 0.156250 0.875000
vt 0.156250 0.812500
vt 0.156250 0.750000
vt 0.156250 0.687500
vt 0.156250 0.625000
vt 0.125000 0.750000
vt 0.125000 0.687500
vt 0.125000 0.625000
vt 0.140625 1.000000
vt 0.125000 0.937500
vt 0.125000 0.875000
vt 0.125000 0.812500
vt 0.109375 1.000000
vt 0.093750 0.937500
vt 0.093750 0.875000
vt 0.093750 0.812500
vt 0.093750 0.750000
vt 0.093750 0.687500
vt 0.093750 0.625000
vt 0.062500 0.750000
vt 0.062500 0.687500
vt 0.062500 0.625000
vt 0.078125 1.000000
vt 0.062500 0.937500
vt 0.062500 0.875000
vt 0.062500 0.812500
vt 0.031250 0.937500
vt 0.031250 0.875000
vt 0.031250 0.812500
vt 0.031250 0.750000
vt 0.031250 0.687500
vt 0.031250 0.625000
vt 0.046875 1.000000
vt 0.000000 0.687500
vt 0.000000 0.625000
vt 0.015625 1.000000
vt 0.000000 0.937500
vt 0.000000 0.875000
vt 0.000000 0.812500
vt 0.000000 0.750000
vt 1.000000 0.875000
vt 1.000000 0.937500
vt 0.968750 0.937500
vt 0.968750 0.875000
vt 1.000000 0.812500
vt 0.968750 0.812500
vt 1.000000 0.750000
vt 0.968750 0.750000
vt 1.000000 0.687500
vt 0.968750 0.687500
vt 1.000000 0.625000
vt 0.968750 0.625000
vt 0.984375 1.000000
vt 0.937500 0.687500
vt 0.937500 0.625000
vt 0.953125 1.000000
vt 0.937500 0.937500
vt 0.937500 0.875000
vt 0.937500 0.812500
vt 0.937500 0.750000
vt 0.906250 0.875000
vt 0.906250 0.812500
vt 0.906250 0.750000
vt 0.906250 0.687500
vt 0.906250 0.625000
vt 0.921875 1.000000
vt 0.906250 0.937500
vt 0.890625 1.000000
vt 0.875000 0.937500
vt 0.875000 0.875000
vt 0.875000 0.812500
vt 0.875000 0.750000
vt 0.875000 0.687500
vt 0.875000 0.625000
vt 0.843750 0.812500
vt 0.843750 0.750000
vt 0.843750 0.687500
vt 0.843750 0.625000
vt 0.859375 1.000000
vt 0.843750 0.937500
vt 0.843750 0.875000
vt 0.828125 1.000000
vt 0.812500 0.937500
vt 0.812500 0.875000
vt 0.812500 0.812500
vt 0.812500 0.750000
vt 0.812500 0.687500
vt 0.812500 0.625000
vt 0.781250 0.812500
vt 0.781250 0.750000
vt 0.781250 0.687500
vt 0.781250 0.625000
vt 0.796875 1.000000
vt 0.781250 0.937500
vt 0.781250 0.875000
vt 0.765625 1.000000
vn 0.0097 0.9951 -0.0980
vn 0.0286 0.9565 -0.2902
vn 0.0464 0.8810 -0.4709
vn 0.0624 0.7715 -0.6332
vn 0.0759 0.6326 -0.7708
vn 0.0865 0.4696 -0.8786
vn 0.0286 0.9951 -0.0942
vn 0.0846 0.9565 -0.2790
vn 0.1374 0.8810 -0.4528
vn 0.1847 0.7715 -0.6088
vn 0.2248 0.6326 -0.7412
vn 0.2563 0.4696 -0.8448
vn 0.2231 0.8810 -0.4173
vn 0.2999 0.7715 -0.5611
vn 0.3651 0.6326 -0.6831
vn 0.4162 0.4696 -0.7786
vn 0.0464 0.9951 -0.0869
vn 0.1374 0.9565 -0.2571
vn 0.0625 0.9951 -0.0761
vn 0.1850 0.9565 -0.2254
vn 0.3002 0.8810 -0.3658
vn 0.4036 0.7715 -0.4918
vn 0.4913 0.6326 -0.5987
vn 0.5601 0.4696 -0.6825
vn 0.4918 0.7715 -0.4036
vn 0.5987 0.6326 -0.4913
vn 0.6825 0.4696 -0.5601
vn 0.0761 0.9951 -0.0625
vn 0.2254 0.9565 -0.1850
vn 0.3658 0.8810 -0.3002
vn 0.0869 0.9951 -0.0464
vn 0.2571 0.9565 -0.1374
vn 0.4173 0.8810 -0.2230
vn 0.5611 0.7715 -0.2999
vn 0.6831 0.6326 -0.3651
vn 0.7786 0.4696 -0.4162
vn 0.6088 0.7715 -0.1847
vn 0.7412 0.6326 -0.2248
vn 0.8448 0.4696 -0.2563
vn 0.0942 0.9951 -0.0286
vn 0.2790 0.9565 -0.0846
vn 0.4528 0.8810 -0.1374
vn 0.0980 0.9951 -0.0097
vn 0.2902 0.9565 -0.0286
vn 0.4709 0.8810 -0.0464
vn 0.6332 0.7715 -0.0624
vn 0.7708 0.6326 -0.0759
vn 0.8786 0.4696 -0.0865
vn 0.7708 0.6326 0.0759
vn 0.8786 0.4696 0.0865
vn 0.0980 0.9951 0.0097
vn 0.2902 0.9565 0.0286
vn 0.4709 0.8810 0.0464
vn 0.6332 0.7715 0.0624
vn 0.2790 0.9565 0.0846
vn 0.4528 0.8810 0.1374
vn 0.6088 0.7715 0.1847
vn 0.7412 0.6326 0.2248
vn 0.8448 0.4696 0.2563
vn 0.0942 0.9951 0.0286
vn 0.7786 0.4696 0.4162
vn 0.0869 0.9951 0.0464
vn 0.2571 0.9565 0.1374
vn 0.4173 0.8810 0.2231
vn 0.5611 0.7715 0.2999
vn 0.6831 0.6326 0.3651
vn 0.2254 0.9565 0.1850
vn 0.3658 0.8810 0.3002
vn 0.4918 0.7715 0.4036
vn 0.5987 0.6326 0.4913
vn 0.6825 0.4696 0.5601
vn 0.0761 0.9951 0.0625
vn 0.5601 0.4696 0.6825
vn 0.0625 0.9951 0.0761
vn 0.1850 0.9565 0.2254
vn 0.3002 0.8810 0.3658
vn 0.4036 0.7715 0.4918
vn 0.4913 0.6326 0.5987
vn 0.2231 0.8810 0.4173
vn 0.2999 0.7715 0.5611
vn 0.3651 0.6326 0.6831
vn 0.4162 0.4696 0.7786
vn 0.0464 0.9951 0.0869
vn 0.1374 0.9565 0.2571
vn 0.0286 0.9951 0.0942
vn 0.0846 0.9565 0.2790
vn 0.1374 0.8810 0.4528
vn 0.1847 0.7715 0.6088
vn 0.2248 0.6326 0.7412
vn 0.2563 0.4696 0.8448
vn 0.0464 0.8810 0.4709
vn 0.0624 0.7715 0.6332
vn 0.0759 0.6326 0.7708
vn 0.0865 0.4696 0.8786
vn 0.0097 0.9951 0.0980
vn 0.0286 0.9565 0.2902
vn -0.0097 0.9951 0.0980
vn -0.0286 0.9565 0.2902
vn -0.0464 0.8810 0.4709
vn -0.0624 0.7715 0.6332
vn -0.0759 0.6326 0.7708
vn -0.0865 0.4696 0.8786
vn -0.1847 0.7715 0.6088
vn -0.2248 0.6326 0.7412
vn -0.2563 0.4696 0.8448
vn -0.0286 0.9951 0.0942
vn -0.0846 0.9565 0.2790
vn -0.1374 0.8810 0.4528
vn -0.0464 0.9951 0.0869
vn -0.1374 0.9565 0.2571
vn -0.2231 0.8810 0.4173
vn -0.2999 0.7715 0.5611
vn -0.3651 0.6326 0.6831
vn -0.4162 0.4696 0.7786
vn -0.4913 0.6326 0.5987
vn -0.5601 0.4696 0.6825
vn -0.0625 0.9951 0.0761
vn -0.1850 0.9565 0.2254
vn -0.3002 0.8810 0.3658
vn -0.4036 0.7715 0.4918
vn -0.0761 0.9951 0.0625
vn -0.2254 0.9565 0.1850
vn -0.3658 0.8810 0.3002
vn -0.4918 0.7715 0.4036
vn -0.5987 0.6326 0.4913
vn -0.6825 0.4696 0.5601
vn -0.6831 0.6326 0.3651
vn -0.7786 0.4696 0.4162
vn -0.0869 0.9951 0.0464
vn -0.2571 0.9565 0.1374
vn -0.4173 0.8810 0.2230
vn -0.5611 0.7715 0.2999
vn -0.2790 0.9565 0.0846
vn -0.4528 0.8810 0.1374
vn -0.6088 0.7715 0.1847
vn -0.7412 0.6326 0.2248
vn -0.8448 0.4696 0.2563
vn -0.0942 0.9951 0.0286
vn -0.8786 0.4696 0.0865
vn -0.0980 0.9951 0.0097
vn -0.2902 0.9565 0.0286
vn -0.4709 0.8810 0.0464
vn -0.6332 0.7715 0.0624
vn -0.7708 0.6326 0.0759
vn -0.2902 0.9565 -0.0286
vn -0.4709 0.8810 -0.0464
vn -0.6332 0.7715 -0.0624
vn -0.7708 0.6326 -0.0759
vn -0.8786 0.4696 -0.0865
vn -0.0980 0.9951 -0.0097
vn -0.8448 0.4696 -0.2563
vn -0.0942 0.9951 -0.0286
vn -0.2790 0.9565 -0.0846
vn -0.4528 0.8810 -0.1374
vn -0.6088 0.7715 -0.1847
vn -0.7412 0.6326 -0.2248
vn -0.4173 0.8810 -0.2231
vn -0.5611 0.7715 -0.2999
vn -0.6831 0.6326 -0.3651
vn -0.7786 0.4696 -0.4162
vn -0.0869 0.9951 -0.0464
vn -0.2571 0.9565 -0.1374
vn -0.0761 0.9951 -0.0625
vn -0.2254 0.9565 -0.1850
vn -0.3658 0.8810 -0.3002
vn -0.4918 0.7715 -0.4036
vn -0.5987 0.6326 -0.4913
vn -0.6825 0.4696 -0.5601
vn -0.4036 0.7715 -0.4918
vn -0.4913 0.6326 -0.5987
vn -0.5601 0.4696 -0.6825
vn -0.0625 0.9951 -0.0761
vn -0.1850 0.9565 -0.2254
vn -0.3002 0.8810 -0.3658
vn -0.0464 0.9951 -0.0869
vn -0.1374 0.9565 -0.2571
vn -0.2230 0.8810 -0.4173
vn -0.2999 0.7715 -0.5611
vn -0.3651 0.6326 -0.6831
vn -0.4162 0.4696 -0.7786
vn -0.1847 0.7715 -0.6088
vn -0.2248 0.6326 -0.7412
vn -0.2563 0.4696 -0.8448
vn -0.0286 0.9951 -0.0942
vn -0.0846 0.9565 -0.2790
vn -0.1374 0.8810 -0.4528
vn -0.0097 0.9951 -0.0980
vn -0.0286 0.9565 -0.2902
vn -0.0464 0.8810 -0.4709
vn -0.0624 0.7715 -0.6332
vn -0.0759 0.6326 -0.7708
vn -0.0865 0.4696 -0.8786
usemtl None
s off
f 1/1/1 133/2/1 7/3/1
f 2/4/2 1/1/2 7/3/2 8/5/2
f 3/6/3 2/4/3 8/5/3 9/7/3
f 4/8/4 3/6/4 9/7/4 10/9/4
f 5/10/5 4/8/5 10/9/5 11/11/5
f 6/12/6 5/10/6 11/11/6 12/13/6
f 7/3/7 133/14/7 13/15/7
f 8/5/8 7/3/8 13/15/8 14/16/8
f 9/7/9 8/5/9 14/16/9 15/17/9
f 10/9/10 9/7/10 15/17/10 16/18/10
f 11/11/11 10/9/11 16/18/11 17/19/11
f 12/13/12 11/11/12 17/19/12 18/20/12
f 15/17/13 14/16/13 20/21/13 21/22/13
f 16/18/14 15/17/14 21/22/14 22/23/14
f 17/19/15 16/18/15 22/23/15 23/24/15
f 18/20/16 17/19/16 23/24/16 24/25/16
f 13/15/17 133/26/17 19/27/17
f 14/16/18 13/15/18 19/27/18 20/21/18
f 19/27/19 133/28/19 25/29/19
f 20/21/20 19/27/20 25/29/20 26/30/20
f 21/22/21 20/21/21 26/30/21 27/31/21
f 22/23/22 21/22/22 27/31/22 28/32/22
f 23/24/23 22/23/23 28/32/23 29/33/23
f 24/25/24 23/24/24 29/33/24 30/34/24
f 28/32/25 27/31/25 33/35/25 34/36/25
f 29/33/26 28/32/26 34/36/26 35/37/26
f 30/34/27 29/33/27 35/37/27 36/38/27
f 25/29/28 133/39/28 31/40/28
f 26/30/29 25/29/29 31/40/29 32/41/29
f 27/31/30 26/30/30 32/41/30 33/35/30
f 31/40/31 133/42/31 37/43/31
f 32/41/32 31/40/32 37/43/32 38/44/32
f 33/35/33 32/41/33 38/44/33 39/45/33
f 34/36/34 33/35/34 39/45/34 40/46/34
f 35/37/35 34/36/35 40/46/35 41/47/35
f 36/38/36 35/37/36 41/47/36 42/48/36
f 40/46/37 39/45/37 45/49/37 46/50/37
f 41/47/38 40/46/38 46/50/38 47/51/38
f 42/48/39 41/47/39 47/51/39 48/52/39
f 37/43/40 133/53/40 43/54/40
f 38/44/41 37/43/41 43/54/41 44/55/41
f 39/45/42 38/44/42 44/55/42 45/49/42
f 43/54/43 133/56/43 49/57/43
f 44/55/44 43/54/44 49/57/44 50/58/44
f 45/49/45 44/55/45 50/58/45 51/59/45
f 46/50/46 45/49/46 51/59/46 52/60/46
f 47/51/47 46/50/47 52/60/47 53/61/47
f 48/52/48 47/51/48 53/61/48 54/62/48
f 53/61/49 52/60/49 58/63/49 59/64/49
f 54/62/50 53/61/50 59/64/50 60/65/50
f 49/57/51 133/66/51 55/67/51
f 50/58/52 49/57/52 55/67/52 56/68/52
f 51/59/53 50/58/53 56/68/53 57/69/53
f 52/60/54 51/59/54 57/69/54 58/63/54
f 56/68/55 55/67/55 61/70/55 62/71/55
f 57/69/56 56/68/56 62/71/56 63/72/56
f 58/63/57 57/69/57 63/72/57 64/73/57
f 59/64/58 58/63/58 64/73/58 65/74/58
f 60/65/59 59/64/59 65/74/59 66/75/59
f 55/67/60 133/76/60 61/70/60
f 66/75/61 65/74/61 71/77/61 72/78/61
f 61/70/62 133/79/62 67/80/62
f 62/71/63 61/70/63 67/80/63 68/81/63
f 63/72/64 62/71/64 68/81/64 69/82/64
f 64/73/65 63/72/65 69/82/65 70/83/65
f 65/74/66 64/73/66 70/83/66 71/77/66
f 68/81/67 67/80/67 73/84/67 74/85/67
f 69/82/68 68/81/68 74/85/68 75/86/68
f 70/83/69 69/82/69 75/86/69 76/87/69
f 71/77/70 70/83/70 76/87/70 77/88/70
f 72/78/71 71/77/71 77/88/71 78/89/71
f 67/80/72 133/90/72 73/84/72
f 78/89/73 77/88/73 83/91/73 84/92/73
f 73/84/74 133/93/74 79/94/74
f 74/85/75 73/84/75 79/94/75 80/95/75
f 75/86/76 74/85/76 80/95/76 81/96/76
f 76/87/77 75/86/77 81/96/77 82/97/77
f 77/88/78 76/87/78 82/97/78 83/91/78
f 81/96/79 80/95/79 86/98/79 87/99/79
f 82/97/80 81/96/80 87/99/80 88/100/80
f 83/91/81 82/97/81 88/100/81 89/101/81
f 84/92/82 83/91/82 89/101/82 90/102/82
f 79/94/83 133/103/83 85/104/83
f 80/95/84 79/94/84 85/104/84 86/98/84
f 85/104/85 133/105/85 91/106/85
f 86/98/86 85/104/86 91/106/86 92/107/86
f 87/99/87 86/98/87 92/107/87 93/108/87
f 88/100/88 87/99/88 93/108/88 94/109/88
f 89/101/89 88/100/89 94/109/89 95/110/89
f 90/102/90 89/101/90 95/110/90 96/111/90
f 93/108/91 92/107/91 98/112/91 99/113/91
f 94/109/92 93/108/92 99/113/92 100/114/92
f 95/110/93 94/109/93 100/114/93 101/115/93
f 96/111/94 95/110/94 101/115/94 102/116/94
f 91/106/95 133/117/95 97/118/95
f 92/107/96 91/106/96 97/118/96 98/112/96
f 97/118/97 133/119/97 103/120/97
f 98/112/98 97/118/98 103/120/98 104/121/98
f 99/113/99 98/112/99 104/121/99 105/122/99
f 100/114/100 99/113/100 105/122/100 106/123/100
f 101/115/101 100/114/101 106/123/101 107/124/101
f 102/116/102 101/115/102 107/124/102 108/125/102
f 106/123/103 105/122/103 111/126/103 112/127/103
f 107/124/104 106/123/104 112/127/104 113/128/104
f 108/125/105 107/124/105 113/128/105 114/129/105
f 103/120/106 133/130/106 109/131/106
f 104/121/107 103/120/107 109/131/107 110/132/107
f 105/122/108 104/121/108 110/132/108 111/126/108
f 109/131/109 133/133/109 115/134/109
f 110/132/110 109/131/110 115/134/110 116/135/110
f 111/126/111 110/132/111 116/135/111 117/136/111
f 112/127/112 111/126/112 117/136/112 118/137/112
f 113/128/113 112/127/113 118/137/113 119/138/113
f 114/129/114 113/128/114 119/138/114 120/139/114
f 119/138/115 118/137/115 124/140/115 125/141/115
f 120/139/116 119/138/116 125/141/116 126/142/116
f 115/134/117 133/143/117 121/144/117
f 116/135/118 115/134/118 121/144/118 122/145/118
f 117/136/119 116/135/119 122/145/119 123/146/119
f 118/137/120 117/136/120 123/146/120 124/140/120
f 121/144/121 133/147/121 127/148/121
f 122/145/122 121/144/122 127/148/122 128/149/122
f 123/146/123 122/145/123 128/149/123 129/150/123
f 124/140/124 123/146/124 129/150/124 130/151/124
f 125/141/125 124/140/125 130/151/125 131/152/125
f 126/142/126 125/141/126 131/152/126 132/153/126
f 131/152/127 130/151/127 137/154/127 138/155/127
f 132/153/128 131/152/128 138/155/128 139/156/128
f 127/148/129 133/157/129 134/158/129
f 128/149/130 127/148/130 134/158/130 135/159/130
f 129/150/131 128/149/131 135/159/131 136/160/131
f 130/151/132 129/150/132 136/160/132 137/154/132
f 135/159/133 134/158/133 140/161/133 141/162/133
f 136/160/134 135/159/134 141/162/134 142/163/134
f 137/154/135 136/160/135 142/163/135 143/164/135
f 138/155/136 137/154/136 143/164/136 144/165/136
f 139/156/137 138/155/137 144/165/137 145/166/137
f 134/158/138 133/167/138 140/161/138
f 145/166/139 144/165/139 150/168/139 151/169/139
f 140/161/140 133/170/140 146/171/140
f 141/162/141 140/161/141 146/171/141 147/172/141
f 142/163/142 141/162/142 147/172/142 148/173/142
f 143/164/143 142/163/143 148/173/143 149/174/143
f 144/165/144 143/164/144 149/174/144 150/168/144
f 147/175/145 146/176/145 152/177/145 153/178/145
f 148/179/146 147/175/146 153/178/146 154/180/146
f 149/181/147 148/179/147 154/180/147 155/182/147
f 150/183/148 149/181/148 155/182/148 156/184/148
f 151/185/149 150/183/149 156/184/149 157/186/149
f 146/176/150 133/187/150 152/177/150
f 157/186/151 156/184/151 162/188/151 163/189/151
f 152/177/152 133/190/152 158/191/152
f 153/178/153 152/177/153 158/191/153 159/192/153
f 154/180/154 153/178/154 159/192/154 160/193/154
f 155/182/155 154/180/155 160/193/155 161/194/155
f 156/184/156 155/182/156 161/194/156 162/188/156
f 160/193/157 159/192/157 165/195/157 166/196/157
f 161/194/158 160/193/158 166/196/158 167/197/158
f 162/188/159 161/194/159 167/197/159 168/198/159
f 163/189/160 162/188/160 168/198/160 169/199/160
f 158/191/161 133/200/161 164/201/161
f 159/192/162 158/191/162 164/201/162 165/195/162
f 164/201/163 133/202/163 170/203/163
f 165/195/164 164/201/164 170/203/164 171/204/164
f 166/196/165 165/195/165 171/204/165 172/205/165
f 167/197/166 166/196/166 172/205/166 173/206/166
f 168/198/167 167/197/167 173/206/167 174/207/167
f 169/199/168 168/198/168 174/207/168 175/208/168
f 173/206/169 172/205/169 178/209/169 179/210/169
f 174/207/170 173/206/170 179/210/170 180/211/170
f 175/208/171 174/207/171 180/211/171 181/212/171
f 170/203/172 133/213/172 176/214/172
f 171/204/173 170/203/173 176/214/173 177/215/173
f 172/205/174 171/204/174 177/215/174 178/209/174
f 176/214/175 133/216/175 182/217/175
f 177/215/176 176/214/176 182/217/176 183/218/176
f 178/209/177 177/215/177 183/218/177 184/219/177
f 179/210/178 178/209/178 184/219/178 185/220/178
f 180/211/179 179/210/179 185/220/179 186/221/179
f 181/212/180 180/211/180 186/221/180 187/222/180
f 185/220/181 184/219/181 190/223/181 191/224/181
f 186/221/182 185/220/182 191/224/182 192/225/182
f 187/222/183 186/221/183 192/225/183 193/226/183
f 182/217/184 133/227/184 188/228/184
f 183/218/185 182/217/185 188/228/185 189/229/185
f 184/219/186 183/218/186 189/229/186 190/223/186
f 188/228/187 133/230/187 1/1/187
f 189/229/188 188/228/188 1/1/188 2/4/188
f 190/223/189 189/229/189 2/4/189 3/6/189
f 191/224/190 190/223/190 3/6/190 4/8/190
f 192/225/191 191/224/191 4/8/191 5/10/191
f 193/226/192 192/225/192 5/10/192 6/12/192
