# Blender v2.93.0 OBJ File: ''
# www.blender.org
o Cylinder_Cylinder.002
v 0.000000 -1.000000 -1.000000
v 0.000000 1.000000 -1.000000
v 0.195090 1.000000 -0.980785
v 0.195090 -1.000000 -0.980785
v 0.382683 1.000000 -0.923880
v 0.382683 -1.000000 -0.923880
v 0.382683 1.000000 0.923880
v 0.382683 -1.000000 0.923880
v 0.195090 1.000000 0.980785
v 0.195090 -1.000000 0.980785
v 0.000000 1.000000 1.000000
v 0.000000 -1.000000 1.000000
v -0.195090 1.000000 0.980785
v -0.195090 -1.000000 0.980785
v -0.382683 1.000000 0.923880
v -0.382683 -1.000000 0.923880
v -0.382683 1.000000 -0.923880
v -0.382683 -1.000000 -0.923880
v -0.195090 1.000000 -0.980785
v -0.195090 -1.000000 -0.980785
vt 1.000000 0.000000
vt 1.000000 1.000000
vt 0.968750 1.000000
vt 0.968750 0.000000
vt 0.937500 1.000000
vt 0.937500 0.000000
vt 0.562500 0.000000
vt 0.562500 1.000000
vt 0.531250 1.000000
vt 0.531250 0.000000
vt 0.500000 1.000000
vt 0.500000 0.000000
vt 0.468750 1.000000
vt 0.468750 0.000000
vt 0.437500 1.000000
vt 0.437500 0.000000
vt 0.062500 0.000000
vt 0.062500 1.000000
vt 0.031250 1.000000
vt 0.031250 0.000000
vt 0.000000 1.000000
vt 0.000000 0.000000
vn 0.0980 0.0000 -0.9952
vn 0.2903 0.0000 -0.9569
vn 0.2903 -0.0000 0.9569
vn 0.0980 -0.0000 0.9952
vn -0.0980 -0.0000 0.9952
vn -0.2903 -0.0000 0.9569
vn -0.2903 0.0000 -0.9569
vn -0.0980 0.0000 -0.9952
usemtl None
s 1
f 1/1/1 2/2/1 3/3/1 4/4/1
f 4/4/2 3/3/2 5/5/2 6/6/2
f 8/7/3 7/8/3 9/9/3 10/10/3
f 10/10/4 9/9/4 11/11/4 12/12/4
f 12/12/5 11/11/5 13/13/5 14/14/5
f 14/14/6 13/13/6 15/15/6 16/16/6
f 18/17/7 17/18/7 19/19/7 20/20/7
f 20/20/8 19/19/8 2/21/8 1/22/8
